<?xml version="1.0" encoding="UTF-8"?>
<svg id="a" xmlns="http://www.w3.org/2000/svg" viewBox="0 0 34.14 34.13">
  <defs>
    <style>
      .b {
        fill: #061e28;
      }
    </style>
  </defs>
  <path class="b" d="M27.31,27.31c.91,0,1.77.36,2.41,1s1,1.51,1,2.41-.36,1.77-1,2.41-1.51,1-2.41,1-1.77-.36-2.41-1-1-1.51-1-2.41c0-1.89,1.52-3.41,3.41-3.41ZM0,0h5.58l1.6,3.41h25.25c.45,0,.89.18,1.21.5s.5.75.5,1.21c0,.29-.09.58-.2.85l-6.11,11.04c-.58,1.04-1.71,1.76-2.99,1.76h-12.72l-1.54,2.78-.05.2c0,.11.05.22.12.3s.19.12.3.12h19.77v3.41H10.24c-.91,0-1.77-.36-2.41-1-.64-.64-1-1.51-1-2.41,0-.6.15-1.16.41-1.64l2.32-4.18L3.41,3.41H0V0ZM10.24,27.31c.91,0,1.77.36,2.41,1,.64.64,1,1.51,1,2.41s-.36,1.77-1,2.41-1.51,1-2.41,1-1.77-.36-2.41-1c-.64-.64-1-1.51-1-2.41,0-1.89,1.52-3.41,3.41-3.41ZM25.6,15.36l4.75-8.53H8.77l4.03,8.53s12.8,0,12.8,0Z"/>
</svg>