<svg width="27" height="27" viewBox="0 0 27 27" fill="none" xmlns="http://www.w3.org/2000/svg">
<path d="M13.3375 2.2229C7.19885 2.2229 2.22278 7.19897 2.22278 13.3376C2.22278 18.2504 5.40715 22.4184 9.82415 23.8855C10.3799 23.9878 10.5822 23.6443 10.5822 23.3498C10.5822 23.0864 10.5733 22.3873 10.5677 21.4603C7.47561 22.1305 6.82317 19.9709 6.82317 19.9709C6.31856 18.6861 5.58943 18.3448 5.58943 18.3448C4.58021 17.6557 5.66613 17.6691 5.66613 17.6691C6.78093 17.7469 7.36779 18.8139 7.36779 18.8139C8.35923 20.5133 9.96975 20.0221 10.6022 19.7375C10.7044 19.0195 10.9912 18.5305 11.3091 18.2526C8.84161 17.9714 6.24632 17.0188 6.24632 12.7586C6.24632 11.5459 6.67979 10.5534 7.39002 9.77648C7.27554 9.49528 6.8943 8.36491 7.49895 6.83441C7.49895 6.83441 8.43258 6.53542 10.5555 7.97367C11.4622 7.72619 12.3977 7.59986 13.3375 7.59799C14.2823 7.60244 15.2326 7.7247 16.1207 7.97145C18.2425 6.5332 19.1739 6.83218 19.1739 6.83218C19.7807 8.36268 19.3995 9.49305 19.285 9.77426C19.9964 10.5512 20.4276 11.5437 20.4276 12.7563C20.4276 17.0266 17.8279 17.9658 15.3526 18.2415C15.7516 18.5849 16.1062 19.2629 16.1062 20.2999C16.1062 21.7848 16.0929 22.9841 16.0929 23.3487C16.0929 23.6455 16.2929 23.9911 16.8576 23.8822C21.2712 22.4151 24.4523 18.2481 24.4523 13.3376C24.4523 7.19897 19.4762 2.2229 13.3375 2.2229Z" fill="white"/>
</svg>
