<svg width="65" height="65" viewBox="0 0 65 65" fill="none" xmlns="http://www.w3.org/2000/svg">
<path d="M26.5072 41.3467C26.269 40.4235 25.7878 39.581 25.1137 38.9069C24.4396 38.2327 23.5971 37.7516 22.6739 37.5134L6.30857 33.2934C6.02936 33.2141 5.78363 33.046 5.60864 32.8144C5.43366 32.5828 5.33899 32.3005 5.33899 32.0103C5.33899 31.72 5.43366 31.4377 5.60864 31.2062C5.78363 30.9746 6.02936 30.8064 6.30857 30.7272L22.6739 26.5045C23.5968 26.2666 24.439 25.7858 25.1131 25.1121C25.7872 24.4385 26.2686 23.5966 26.5072 22.6739L30.7272 6.30855C30.8057 6.02824 30.9737 5.78128 31.2056 5.60537C31.4375 5.42945 31.7206 5.33423 32.0116 5.33423C32.3027 5.33423 32.5858 5.42945 32.8177 5.60537C33.0496 5.78128 33.2176 6.02824 33.2961 6.30855L37.5134 22.6739C37.7516 23.5971 38.2328 24.4395 38.9069 25.1137C39.5811 25.7878 40.4235 26.269 41.3467 26.5071L57.712 30.7245C57.9935 30.8021 58.2416 30.97 58.4185 31.2022C58.5954 31.4345 58.6912 31.7183 58.6912 32.0103C58.6912 32.3022 58.5954 32.5861 58.4185 32.8183C58.2416 33.0506 57.9935 33.2184 57.712 33.296L41.3467 37.5134C40.4235 37.7516 39.5811 38.2327 38.9069 38.9069C38.2328 39.581 37.7516 40.4235 37.5134 41.3467L33.2934 57.712C33.2149 57.9923 33.047 58.2393 32.815 58.4152C32.5831 58.5911 32.3001 58.6863 32.009 58.6863C31.7179 58.6863 31.4348 58.5911 31.2029 58.4152C30.971 58.2393 30.803 57.9923 30.7246 57.712L26.5072 41.3467Z" stroke="#FFBE38" stroke-width="5.33508" stroke-linecap="round" stroke-linejoin="round"/>
<path d="M53.3506 8.00244V18.6726" stroke="#FFBE38" stroke-width="5.33508" stroke-linecap="round" stroke-linejoin="round"/>
<path d="M58.686 13.3376H48.0159" stroke="#FFBE38" stroke-width="5.33508" stroke-linecap="round" stroke-linejoin="round"/>
<path d="M10.6703 45.3481V50.6832" stroke="#FFBE38" stroke-width="5.33508" stroke-linecap="round" stroke-linejoin="round"/>
<path d="M13.3376 48.0159H8.00256" stroke="#FFBE38" stroke-width="5.33508" stroke-linecap="round" stroke-linejoin="round"/>
</svg>
