<svg width="27" height="27" viewBox="0 0 27 27" fill="none" xmlns="http://www.w3.org/2000/svg">
<path d="M25.0747 13.6158C25.0747 12.7489 24.9969 11.9153 24.8524 11.115H13.3375V15.8499H19.9175C19.6285 17.3726 18.7615 18.6619 17.4611 19.5289V22.6076H21.4291C23.7409 20.4736 25.0747 17.3392 25.0747 13.6158Z" fill="white"/>
<path d="M13.3378 25.564C16.6389 25.564 19.4064 24.4748 21.4293 22.6075L17.4613 19.5287C16.3721 20.2623 14.9828 20.7069 13.3378 20.7069C10.159 20.7069 7.45808 18.5617 6.49109 15.6719H2.4231V18.8285C4.43486 22.8187 8.55843 25.564 13.3378 25.564Z" fill="white"/>
<path d="M6.49099 15.6607C6.24646 14.9271 6.10197 14.1491 6.10197 13.3377C6.10197 12.5263 6.24646 11.7483 6.49099 11.0147V7.85815H2.42299C1.58938 9.50314 1.11145 11.3593 1.11145 13.3377C1.11145 15.3161 1.58938 17.1723 2.42299 18.8173L5.59069 16.3498L6.49099 15.6607Z" fill="white"/>
<path d="M13.3378 5.98007C15.1384 5.98007 16.7389 6.6025 18.0171 7.80289L21.5182 4.30175C19.3953 2.32332 16.6389 1.11182 13.3378 1.11182C8.55843 1.11182 4.43486 3.85716 2.4231 7.85847L6.49109 11.0151C7.45807 8.12522 10.159 5.98007 13.3378 5.98007Z" fill="white"/>
</svg>
