<svg width="25" height="28" viewBox="0 0 25 28" fill="none" xmlns="http://www.w3.org/2000/svg">
<path d="M6.02075 12.2705V7.27051C6.02075 5.61291 6.67923 4.02319 7.85134 2.85109C9.02344 1.67899 10.6131 1.02051 12.2708 1.02051C13.9284 1.02051 15.5181 1.67899 16.6902 2.85109C17.8623 4.02319 18.5208 5.61291 18.5208 7.27051V12.2705M3.52051 12.2705H21.0205C22.4012 12.2705 23.5205 13.3898 23.5205 14.7705V23.5205C23.5205 24.9012 22.4012 26.0205 21.0205 26.0205H3.52051C2.1398 26.0205 1.02051 24.9012 1.02051 23.5205V14.7705C1.02051 13.3898 2.1398 12.2705 3.52051 12.2705Z" stroke="#008695" stroke-width="2.041" stroke-linecap="round" stroke-linejoin="round"/>
</svg>
