<svg width="24" height="24" viewBox="0 0 24 24" fill="none" xmlns="http://www.w3.org/2000/svg">
<path d="M17.4076 5.80262H17.4181M6.32978 1.05503H16.88C19.7933 1.05503 22.1551 3.41677 22.1551 6.33013V16.8803C22.1551 19.7937 19.7933 22.1554 16.88 22.1554H6.32978C3.41643 22.1554 1.05469 19.7937 1.05469 16.8803V6.33013C1.05469 3.41677 3.41643 1.05503 6.32978 1.05503ZM15.8251 10.9405C15.9553 11.8185 15.8053 12.7152 15.3965 13.5031C14.9876 14.291 14.3408 14.9299 13.5479 15.329C12.7551 15.7281 11.8565 15.867 10.9802 15.726C10.1038 15.5849 9.29424 15.1712 8.66658 14.5435C8.03893 13.9159 7.62517 13.1063 7.48415 12.2299C7.34313 11.3536 7.48204 10.455 7.88111 9.66218C8.28018 8.86931 8.9191 8.22246 9.70699 7.81364C10.4949 7.40482 11.3916 7.25485 12.2696 7.38505C13.1653 7.51786 13.9944 7.9352 14.6347 8.57544C15.2749 9.21567 15.6922 10.0448 15.8251 10.9405Z" stroke="#B1B5B9" stroke-width="2.11004" stroke-linecap="round" stroke-linejoin="round"/>
</svg>
