<svg width="221" height="98" viewBox="0 0 221 98" fill="none" xmlns="http://www.w3.org/2000/svg">
<path d="M177.397 31.0421L172.844 28.5017L174.948 33.2718L170.996 36.8659L176.252 36.2158L178.373 40.9876L179.501 35.8122L184.756 35.1622L180.203 32.6218L181.349 27.448L177.397 31.0421Z" fill="url(#paint0_linear_690_216824)" stroke="url(#paint1_linear_690_216824)" stroke-width="1.28303" stroke-miterlimit="10"/>
<path d="M65.9014 10.2942L59.4847 6.32623L62.2269 13.3456L56.3013 18.2895L63.9287 17.6854L66.671 24.7047L68.6436 17.3135L76.2608 16.7173L69.8543 12.7415L71.8269 5.35029L65.9014 10.2942Z" fill="url(#paint2_linear_690_216824)" stroke="url(#paint3_linear_690_216824)" stroke-width="1.28303" stroke-miterlimit="10"/>
<path d="M122.71 19.4033C122.71 18.6592 121.068 17.1067 120.734 17.1067C119.579 17.1067 76.6362 60.2165 71.6324 60.2165C71.1449 60.2165 70.9781 59.729 70.9781 58.818C70.9781 53.5576 78.2015 34.7612 90.8522 19.9037C91.5066 19.1596 92.5715 18.4282 92.5715 17.4403C92.5715 17.0297 91.7503 15.875 90.6854 15.875C89.8643 15.875 89.3767 17.0297 86.0922 20.2245C71.4785 34.5046 55.9281 48.1432 39.4155 60.1524C37.0291 61.8845 34.5528 63.4626 32.0124 64.9509C30.4343 65.8747 28.8049 66.8241 27.0086 67.2347C24.9429 67.7223 22.4667 66.9781 22.2614 64.489C22.0433 61.769 25.7384 59.1773 27.5347 57.6633C29.3951 56.098 31.3068 54.507 33.0517 52.8263C38.2095 47.8481 45.6382 41.1635 48.5764 38.1612C49.7311 36.9809 52.759 33.8246 55.1455 31.7204C55.8383 31.1046 56.8006 30.2321 57.4036 29.5906C58.0451 28.9106 58.4429 28.3332 57.5961 27.9227C56.8647 27.5762 56.0821 27.1015 55.6843 27.3838C54.5296 28.1793 53.1824 29.7574 52.4768 30.4246C50.039 32.7212 47.5884 35.005 45.1378 37.3016C40.4548 41.6896 36.0283 46.6164 31.1143 50.7221C20.7731 59.3312 11.7919 65.8106 8.3277 66.1955C5.73598 66.4777 4.33747 65.3743 4.06803 62.8211C3.95256 61.7562 4.14502 61.1018 4.29899 60.5886C4.40163 60.2422 4.49143 59.9471 4.45294 59.6392C4.38879 59.049 3.96539 58.7539 3.31105 58.818C1.91254 58.972 0.424231 60.9864 0.668006 63.2701C0.963104 65.9902 3.93974 69.5313 9.61073 68.9155C12.7285 68.5691 16.244 66.7472 19.8621 64.2966C19.3874 64.6173 20.401 66.4136 20.6063 66.7215C22.1074 68.9411 24.3399 69.5057 26.906 69.5057C31.3453 69.5057 37.0932 65.8875 44.2269 60.3962C55.9666 51.3636 68.3607 39.7907 84.6295 24.189C77.4061 34.7869 68.1298 50.2987 68.1298 58.5871C68.1298 62.0384 70.1826 63.7577 71.6581 63.7577C75.6868 63.7577 99.1663 40.7658 114.678 25.3309C99.41 46.4368 90.4545 63.4241 90.4545 73.034C90.4545 75.3306 91.6862 78.4484 93.2515 78.4484C93.739 78.4484 93.9058 78.1148 93.9058 77.7042C93.9058 76.8061 93.5722 75.1638 93.5722 73.4318C93.5722 62.1796 105.646 40.9967 117.142 26.1392C119.682 22.8547 122.723 20.5581 122.723 19.4033H122.71Z" fill="url(#paint4_linear_690_216824)" stroke="url(#paint5_linear_690_216824)" stroke-width="1.28303" stroke-miterlimit="10"/>
<path d="M219.985 59.208C219.241 59.208 213.583 64.1348 209.144 64.1348C207.835 64.1348 206.924 63.2367 206.924 61.6714C206.924 59.285 208.9 56.5008 210.863 54.2811C212.672 52.2283 212.993 52.3951 212.993 51.8947C212.993 51.3943 212.582 50.663 211.838 50.1754C212.082 49.4313 212.326 48.7 212.326 47.8788C212.326 45.6592 210.85 44.5943 209.452 44.5943C206.077 44.5943 198.892 50.4962 194.568 56.3468C187.332 63.442 183.316 65.1997 179.801 65.1997C176.927 65.1997 176.183 64.045 176.183 62.4925C176.183 56.7446 186.036 45.7362 190.796 45.7362C191.861 45.7362 192.195 46.3135 192.195 46.9679C192.195 49.0977 189.321 50.9068 189.321 52.1385C189.321 52.549 189.731 53.0366 190.219 53.0366C191.528 53.0366 194.568 49.3415 194.568 46.8781C194.568 44.8252 192.593 43.5165 190.707 43.5165C187.268 43.5165 181.905 47.635 178.069 52.4336C177.928 52.5747 177.799 52.7158 177.645 52.8826C173.783 56.9883 165.906 64.7122 162.865 64.7122C162.21 64.7122 161.556 64.3016 161.556 63.0699C161.556 60.6835 165.007 55.3461 167.304 52.7287C169.434 50.2653 169.524 49.7777 169.524 49.2003C169.524 48.3792 169.036 47.7249 168.125 47.7249C167.573 47.7249 166.226 49.0592 164.738 51.0479C162.634 52.8057 157.258 60.6193 144.068 66.8548C146.532 62.5054 149.162 58.2329 152.113 54.4608C154.089 51.9973 154.653 50.8426 154.653 49.9445C154.653 49.5339 154.576 49.2902 154.487 49.1234C155.475 48.1354 155.885 46.9037 155.885 45.9158C155.885 44.1965 154.73 42.875 152.113 42.875C147.687 42.875 141.785 47.5196 137.551 52.6645C137.474 52.7415 137.409 52.8057 137.332 52.8955C131.584 58.8872 126.658 63.6473 124.027 63.6473C123.039 63.6473 122.719 62.9929 122.719 62.2488C122.719 60.4397 124.938 56.6676 127.402 53.7936C128.877 52.0743 129.788 51.3302 129.788 50.6758C129.788 50.0215 128.967 49.5211 128.146 49.3671C128.223 49.1234 128.223 48.9566 128.223 48.7128C128.223 46.8267 127.235 45.4282 125.015 45.4282C118.036 45.4282 105.642 58.7333 105.642 64.9688C105.642 67.2654 107.284 68.9975 108.759 68.9975C110.812 68.9975 114.264 65.8797 120.422 60.0419C120.089 60.8631 119.935 61.7612 119.935 62.5054C119.935 65.0458 121.5 66.2775 123.142 66.2775C125.362 66.2775 129.416 63.211 132.97 59.9778C132.47 61.2223 132.188 62.3642 132.188 63.3137C132.188 65.9439 134.24 67.1756 135.472 67.1756C137.281 67.1756 141.053 64.4684 145.082 60.7733L140.643 68.4073C126.029 74.3991 115.931 82.1999 115.931 90.7449C115.931 93.8626 117.818 96.6596 121.679 96.6596C129.557 96.6596 135.228 83.3546 142.375 70.0624C151.433 65.7386 156.95 61.7099 160.555 58.297C159.785 60.1318 159.285 61.9408 159.285 63.5061C159.285 65.3922 160.183 67.2782 162.493 67.2782C165.149 67.2782 170.05 63.1725 174.104 59.2593C173.719 60.3499 173.501 61.3891 173.501 62.3514C173.501 65.3024 175.554 67.2782 179.737 67.2782C183.573 67.2782 187.14 65.559 191.502 61.851C191.22 62.6722 191.066 63.4548 191.066 64.1476C191.066 66.3673 192.541 68.2533 194.107 68.2533C196.493 68.2533 201.009 63.9039 205.269 59.5544C204.858 60.4525 204.615 61.6072 204.615 62.4284C204.615 64.2375 205.603 66.1235 208.643 66.1235C213.237 66.1235 220.473 62.0178 220.473 59.888C220.473 59.4004 220.229 59.2336 219.985 59.2336V59.208ZM108.965 66.5084C108.631 66.5084 108.22 66.2646 108.22 65.3537C108.22 60.5936 119.229 47.6992 124.977 47.6992C126.042 47.6992 126.375 48.1867 126.375 49.0977C126.375 50.74 125.387 52.1385 123.668 54.1015C120.14 58.1302 111.107 66.4956 108.965 66.4956V66.5084ZM135.241 64.6993C134.754 64.6993 134.42 64.3658 134.42 63.4676C134.42 58.7846 146.904 44.7482 152.729 44.7482C153.55 44.7482 153.717 45.2358 153.717 46.0569C153.717 46.8781 153.306 47.943 152.973 48.5973C151.985 48.7641 151.164 49.4185 151.164 50.1626C151.164 50.4064 151.241 50.5732 151.407 50.817C143.606 60.5936 137.114 64.6993 135.228 64.6993H135.241ZM121.449 94.7607C119.562 94.7607 118.498 93.9396 118.498 90.9886C118.498 84.009 126.632 77.7734 138.859 71.6919C131.713 84.7531 126.709 94.7607 121.449 94.7607ZM194.363 65.7771C193.953 65.7771 193.619 65.4435 193.619 64.6224C193.619 59.285 205.526 46.8909 209.298 46.8909C210.042 46.8909 210.452 47.3784 210.452 48.3664C210.452 49.2645 210.119 50.586 208.323 52.549C207.989 52.8826 207.835 53.1264 207.835 53.3702C207.835 53.7038 208.002 53.9476 208.169 54.1143C202.587 59.9393 196.185 65.7771 194.376 65.7771H194.363Z" fill="url(#paint6_linear_690_216824)" stroke="url(#paint7_linear_690_216824)" stroke-miterlimit="10"/>
<defs>
<linearGradient id="paint0_linear_690_216824" x1="182.563" y1="28.891" x2="171.864" y2="37.8966" gradientUnits="userSpaceOnUse">
<stop offset="0.0961538" stop-color="#FFBE38"/>
<stop offset="0.496729" stop-color="#F4443C"/>
<stop offset="0.899038" stop-color="#9C3375"/>
</linearGradient>
<linearGradient id="paint1_linear_690_216824" x1="182.563" y1="28.891" x2="171.864" y2="37.8966" gradientUnits="userSpaceOnUse">
<stop offset="0.0961538" stop-color="#FFBE38"/>
<stop offset="0.496729" stop-color="#F4443C"/>
<stop offset="0.899038" stop-color="#9C3375"/>
</linearGradient>
<linearGradient id="paint2_linear_690_216824" x1="73.4887" y1="7.5118" x2="57.4782" y2="19.8204" gradientUnits="userSpaceOnUse">
<stop offset="0.0961538" stop-color="#FFBE38"/>
<stop offset="0.496729" stop-color="#F4443C"/>
<stop offset="0.899038" stop-color="#9C3375"/>
</linearGradient>
<linearGradient id="paint3_linear_690_216824" x1="73.4887" y1="7.5118" x2="57.4782" y2="19.8204" gradientUnits="userSpaceOnUse">
<stop offset="0.0961538" stop-color="#FFBE38"/>
<stop offset="0.496729" stop-color="#F4443C"/>
<stop offset="0.899038" stop-color="#9C3375"/>
</linearGradient>
<linearGradient id="paint4_linear_690_216824" x1="106.642" y1="20.875" x2="52.6416" y2="75.375" gradientUnits="userSpaceOnUse">
<stop offset="0.0961538" stop-color="#FFBE38"/>
<stop offset="0.496729" stop-color="#F4443C"/>
<stop offset="0.899038" stop-color="#9C3375"/>
</linearGradient>
<linearGradient id="paint5_linear_690_216824" x1="106.642" y1="20.875" x2="52.6416" y2="75.375" gradientUnits="userSpaceOnUse">
<stop offset="0.0961538" stop-color="#FFBE38"/>
<stop offset="0.496729" stop-color="#F4443C"/>
<stop offset="0.899038" stop-color="#9C3375"/>
</linearGradient>
<linearGradient id="paint6_linear_690_216824" x1="205.347" y1="47.1727" x2="159.157" y2="98.1864" gradientUnits="userSpaceOnUse">
<stop offset="0.0961538" stop-color="#FFBE38"/>
<stop offset="0.496729" stop-color="#F4443C"/>
<stop offset="0.899038" stop-color="#9C3375"/>
</linearGradient>
<linearGradient id="paint7_linear_690_216824" x1="205.347" y1="47.1727" x2="159.157" y2="98.1864" gradientUnits="userSpaceOnUse">
<stop offset="0.0961538" stop-color="#FFBE38"/>
<stop offset="0.496729" stop-color="#F4443C"/>
<stop offset="0.899038" stop-color="#9C3375"/>
</linearGradient>
</defs>
</svg>
