<svg width="153" height="77" viewBox="0 0 153 77" fill="none" xmlns="http://www.w3.org/2000/svg">
<path d="M114.88 27.1836C117.355 27.1836 118.841 28.415 118.841 30.4873C118.841 31.5465 118.403 32.6404 117.666 33.5039C117.712 33.6881 117.735 33.8838 117.735 34.1025C117.735 35.1272 117.114 36.2906 115.329 38.5127C113.349 41.0455 111.346 44.0731 109.101 47.9297C117.367 43.7044 121.811 38.9039 124.264 36.2559C124.862 35.6227 125.3 35.1503 125.668 34.8164C127.095 32.871 128.488 31.5355 129.26 31.5352C130.342 31.5352 131.091 32.318 131.091 33.4346C131.091 34.1714 130.884 34.7709 128.961 36.9814C126.958 39.2726 123.941 43.9814 123.941 45.8926C123.942 46.7902 124.39 46.79 124.54 46.79C126.509 46.7894 131.805 42.1734 136.49 37.3037C139.944 32.7445 145.344 28.668 148.487 28.668C151.63 28.668 152.747 30.4875 152.747 32.1914C152.747 34.9313 150.169 38.2241 148.557 38.2246C147.682 38.2246 147.026 37.6604 147.025 36.9121C147.025 36.4056 147.382 35.9105 147.889 35.2197C148.522 34.3562 149.305 33.2737 149.305 32.1914C149.305 31.5928 149.143 31.5928 148.844 31.5928C146.023 31.5935 136.456 40.1011 136.456 45.3164C136.456 46.698 136.778 47.3203 138.678 47.3203C143.352 47.3203 148.038 44.2462 150.295 42.7725C151.388 42.0475 151.688 41.8625 152.01 41.8623L151.987 41.8506C152.494 41.8506 153 42.208 153 43.0137C153 45.7768 144.192 50.2207 138.724 50.2207C135.178 50.2206 133.14 48.264 133.14 44.8564C133.14 44.7643 133.175 44.6603 133.175 44.5566C129.698 47.7227 126.244 50.2205 124.148 50.2207C122.053 50.2207 120.694 48.6669 120.694 46.2607C120.694 45.4319 120.878 44.4878 121.166 43.4863C118.011 46.1573 113.44 49.2656 106.51 52.5928C105.658 54.1931 104.817 55.7936 104 57.3594C98.6118 67.6867 93.9603 76.5977 87.5244 76.5977C83.5641 76.5975 81.7911 73.6391 81.791 70.7148C81.791 63.4385 89.7349 56.1615 104.149 50.2207L106.291 46.5371C104.058 48.3676 101.479 50.1522 99.9131 50.1523C98.4395 50.1523 96.3898 48.7476 96.3896 46.1113C96.3896 45.7314 96.436 45.3166 96.5166 44.8906C93.7305 47.2623 90.7485 49.3348 88.8604 49.335C87.1909 49.335 85.4062 48.1027 85.4062 45.374C85.4062 45.2129 85.4182 45.0518 85.4297 44.8906C80.3528 49.6567 77.8079 51.7633 75.9658 51.7637C74.3655 51.7637 72.5919 50.037 72.5918 47.5732C72.5918 41.8051 83.8635 29.4629 90.5527 29.4629C92.6826 29.4629 94.0068 30.8104 94.0068 32.9863V33.1582C94.7666 33.4345 95.4109 33.9874 95.4111 34.7471C95.4111 35.3918 94.9277 35.9331 94.1104 36.8311C93.8341 37.1418 93.5118 37.499 93.1436 37.9248C90.8986 40.5381 89.0794 43.7733 89.0791 45.1436C89.0791 45.7653 89.3784 45.8232 89.6777 45.8232C92.1186 45.823 98.0245 39.6634 101.202 36.3477C101.237 36.3016 101.271 36.2669 101.306 36.2324C105.255 31.443 110.793 27.1837 114.88 27.1836ZM101.548 54.9873C90.4379 60.7322 85.2454 65.8213 85.2451 70.9561C85.2451 73.558 86.1776 73.7656 87.3174 73.7656C91.324 73.7656 95.5835 65.9482 100.972 56.0469L101.548 54.9873ZM64.6816 0C65.9708 0.000227043 66.9491 1.32421 66.9492 1.98047C66.9492 2.90153 66.2815 3.55813 65.6943 4.13379C65.5447 4.28341 65.3834 4.43339 65.2568 4.58301C54.2851 17.4776 47.5725 34.2747 47.5723 39.1221C47.5723 39.6977 47.665 39.8361 47.665 39.8477C50.3947 39.8003 70.2197 20.943 80.8691 10.8232C90.7705 1.41694 91.1735 1.11719 91.6455 1.11719C92.3364 1.11755 93.9941 2.84446 93.9941 3.75391C93.994 4.57127 93.1074 5.50378 91.749 6.9082C90.851 7.84077 89.8257 8.91164 88.8701 10.1436C78.4277 23.6601 67.8477 42.4501 67.8477 52.2363L67.8359 52.2012C67.8359 53.0647 67.9399 53.9057 68.0205 54.6426C68.0781 55.195 68.1357 55.6669 68.1357 56.0352C68.1357 56.795 67.6748 57.2782 66.9727 57.2783C65.0846 57.2783 63.8868 54.0668 63.8867 51.8447C63.8867 44.1539 70.0927 31.1669 81.9053 14.0928C60.9282 34.7935 50.2781 44.0957 47.584 44.0957C46.0758 44.0956 43.8429 42.4381 43.8428 38.8809C43.8428 32.042 50.4628 20.4021 55.874 12.0205C42.2078 25.0765 32.6404 33.8036 23.3262 40.9648C17.7307 45.2823 11.9275 49.2656 7.42578 49.2656C2.30257 49.2655 0 45.0858 0 42.127C0.000122472 39.6518 1.51974 37.6485 2.78613 37.6484C3.37331 37.6484 3.73047 38.0289 3.73047 38.6621C3.7304 38.9958 3.62656 39.3064 3.5 39.6631C3.31579 40.2042 3.07422 40.884 3.07422 42.0469C3.07428 44.8328 4.21381 46.1913 6.55078 46.1914C12.9636 46.1914 42.587 21.2422 60.1562 4.06445C61.3306 2.92467 62.0911 2.07309 62.6553 1.46289C63.5648 0.46124 63.9908 0 64.6816 0ZM90.4834 32.6982C85.7859 32.6985 76.0342 43.8201 76.0342 47.9648C76.0342 48.333 76.127 48.4248 76.127 48.4248C77.5557 48.412 85.1767 41.7007 88.8721 37.4873C90.3916 35.7605 91.1631 34.6433 91.1631 33.377C91.163 32.8361 91.0819 32.6982 90.4834 32.6982ZM115.398 30.0498C110.701 30.0498 99.5449 42.3119 99.5449 46.2725C99.545 46.6829 99.6351 46.7881 99.6367 46.79C100.846 46.7898 106.199 43.9458 113.521 34.8623H113.533C113.476 34.7127 113.43 34.5401 113.43 34.333C113.43 33.481 114.166 32.7099 115.226 32.4336C115.467 31.8925 115.709 31.1665 115.709 30.6484C115.709 30.0502 115.651 30.0498 115.398 30.0498ZM140.024 17.7422L144.399 20.4023L139.299 20.8281L138.137 25.8135L136.145 21.0928L131.044 21.5186L134.924 18.1797L132.944 13.46L137.319 16.1074L141.188 12.7686L140.024 17.7422Z" fill="url(#paint0_linear_1223_3415)"/>
<defs>
<linearGradient id="paint0_linear_1223_3415" x1="83.6007" y1="10.3619" x2="54.8177" y2="59.8687" gradientUnits="userSpaceOnUse">
<stop offset="0.1" stop-color="#9C3375"/>
<stop offset="0.5" stop-color="#F4443C"/>
<stop offset="1" stop-color="#FFBE38"/>
</linearGradient>
</defs>
</svg>
