<svg width="24" height="24" viewBox="0 0 24 24" fill="none" xmlns="http://www.w3.org/2000/svg">
<g clip-path="url(#clip0_860_6538)">
<path d="M11.9999 1.33325C9.89026 1.33325 7.82797 1.95884 6.07384 3.13091C4.31972 4.30298 2.95254 5.96888 2.14521 7.91796C1.33787 9.86704 1.12664 12.0118 1.53821 14.0809C1.94979 16.15 2.96569 18.0506 4.45745 19.5424C5.94921 21.0342 7.84983 22.0501 9.91896 22.4616C11.9881 22.8732 14.1328 22.662 16.0819 21.8546C18.031 21.0473 19.6969 19.6801 20.8689 17.926C22.041 16.1719 22.6666 14.1096 22.6666 11.9999C22.6666 9.17094 21.5428 6.45783 19.5424 4.45745C17.542 2.45706 14.8289 1.33325 11.9999 1.33325ZM17.0999 15.7266C16.4333 17.7266 14.6933 18.2866 13.1666 18.3933V19.7266C13.1666 19.9476 13.0788 20.1596 12.9225 20.3158C12.7662 20.4721 12.5543 20.5599 12.3333 20.5599C12.1122 20.5599 11.9003 20.4721 11.744 20.3158C11.5877 20.1596 11.4999 19.9476 11.4999 19.7266V18.3933C9.96902 18.2497 8.51695 17.648 7.33326 16.6666C7.25315 16.5917 7.18857 16.5018 7.14321 16.402C7.09785 16.3022 7.07259 16.1944 7.06887 16.0849C7.06516 15.9753 7.08306 15.8661 7.12156 15.7634C7.16006 15.6608 7.2184 15.5667 7.29326 15.4866C7.36811 15.4065 7.45801 15.3419 7.55782 15.2965C7.65763 15.2512 7.7654 15.2259 7.87497 15.2222C7.98455 15.2185 8.09378 15.2364 8.19643 15.2749C8.29909 15.3134 8.39315 15.3717 8.47326 15.4466C9.34556 16.1495 10.3955 16.5971 11.5066 16.7399V12.5533C10.621 12.4174 9.77388 12.0972 9.01992 11.6133C8.38591 11.2156 7.91131 10.6083 7.67867 9.89702C7.44603 9.18571 7.47006 8.41535 7.74659 7.71992C8.13992 6.71325 9.35992 5.56659 11.5066 5.37992V4.16659C11.5066 3.94557 11.5944 3.73361 11.7507 3.57733C11.9069 3.42105 12.1189 3.33325 12.3399 3.33325C12.5609 3.33325 12.7729 3.42105 12.9292 3.57733C13.0855 3.73361 13.1733 3.94557 13.1733 4.16659V5.40659C14.365 5.53861 15.4962 6.00035 16.4399 6.73992C16.5707 6.89381 16.6412 7.08997 16.6382 7.29192C16.6352 7.49386 16.559 7.68785 16.4237 7.83782C16.2884 7.98778 16.1033 8.0835 15.9027 8.10718C15.7021 8.13087 15.4998 8.08091 15.3333 7.96659C14.6967 7.50104 13.9545 7.20094 13.1733 7.09325V11.1799C13.5733 11.2666 13.9999 11.3599 14.4466 11.4999C14.9633 11.6287 15.4481 11.862 15.8711 12.1853C16.2942 12.5087 16.6466 12.9152 16.9066 13.3799C17.2779 14.1061 17.3474 14.9495 17.0999 15.7266Z" fill="#00B4C5"/>
<path d="M13.9467 13.0933C13.6801 13.0133 13.4201 12.9466 13.1667 12.8933V16.7333C14.5001 16.6 15.2134 16.1333 15.5201 15.2C15.6223 14.849 15.5865 14.4722 15.4201 14.1466C15.2571 13.8817 15.0428 13.6521 14.7898 13.4712C14.5368 13.2903 14.2501 13.1618 13.9467 13.0933Z" fill="#00B4C5"/>
<path d="M9.29327 8.32011C9.15416 8.66572 9.14505 9.05005 9.26763 9.40186C9.39022 9.75367 9.63618 10.0491 9.95994 10.2334C10.431 10.5359 10.9563 10.7442 11.5066 10.8468V7.03345C10.1066 7.20011 9.45994 7.89345 9.29327 8.32011Z" fill="#00B4C5"/>
</g>
<defs>
<clipPath id="clip0_860_6538">
<rect width="24" height="24" fill="white"/>
</clipPath>
</defs>
</svg>
