<svg width="12" height="20" viewBox="0 0 12 20" fill="none" xmlns="http://www.w3.org/2000/svg">
<path d="M10 6.5H12C12 3.663 9.245 2.369 7 2.071V0H5V2.071C2.755 2.369 0 3.663 0 6.5C0 9.206 2.666 10.613 5 10.93V15.9C3.552 15.649 2 14.876 2 13.5H0C0 16.089 2.425 17.619 5 17.936V20H7V17.93C9.245 17.632 12 16.337 12 13.5C12 10.663 9.245 9.369 7 9.071V4.1C8.33 4.339 10 5.041 10 6.5ZM2 6.5C2 5.041 3.67 4.339 5 4.1V8.899C3.629 8.646 2 7.897 2 6.5ZM10 13.5C10 14.959 8.33 15.661 7 15.9V11.1C8.33 11.339 10 12.041 10 13.5Z" fill="#B1B5B9"/>
</svg>
