<svg width="36" height="36" viewBox="0 0 36 36" fill="none" xmlns="http://www.w3.org/2000/svg">
<path d="M18 0C20.3869 0 22.6761 0.948211 24.364 2.63604C26.0518 4.32387 27 6.61305 27 9C27 11.3869 26.0518 13.6761 24.364 15.364C22.6761 17.0518 20.3869 18 18 18C15.6131 18 13.3239 17.0518 11.636 15.364C9.94821 13.6761 9 11.3869 9 9C9 6.61305 9.94821 4.32387 11.636 2.63604C13.3239 0.948211 15.6131 0 18 0ZM18 22.5C27.945 22.5 36 26.5275 36 31.5V36H0V31.5C0 26.5275 8.055 22.5 18 22.5Z" fill="white"/>
</svg>
