<svg width="24" height="24" viewBox="0 0 24 24" fill="none" xmlns="http://www.w3.org/2000/svg">
<path d="M8.69499 8.59516C8.95621 7.85257 9.47182 7.22639 10.1505 6.82753C10.8292 6.42867 11.6271 6.28287 12.403 6.41595C13.1788 6.54903 13.8826 6.95241 14.3895 7.55463C14.8965 8.15686 15.1739 8.91907 15.1728 9.70627C15.1728 11.9285 11.8394 13.0396 11.8394 13.0396M11.9285 17.484H11.9389M23.0396 11.9285C23.0396 18.065 18.065 23.0396 11.9285 23.0396C5.792 23.0396 0.817383 18.065 0.817383 11.9285C0.817383 5.792 5.792 0.817383 11.9285 0.817383C18.065 0.817383 23.0396 5.792 23.0396 11.9285Z" stroke="#008695" stroke-width="1.63504" stroke-linecap="round" stroke-linejoin="round"/>
</svg>
