<svg width="24" height="24" viewBox="0 0 24 24" fill="none" xmlns="http://www.w3.org/2000/svg">
<path d="M16 11C16 12.3261 15.4732 13.5979 14.5355 14.5355C13.5979 15.4732 12.3261 16 11 16C9.67392 16 8.40215 15.4732 7.46447 14.5355C6.52678 13.5979 6 12.3261 6 11C6 9.67392 6.52678 8.40215 7.46447 7.46447C8.40215 6.52678 9.67392 6 11 6C12.3261 6 13.5979 6.52678 14.5355 7.46447C15.4732 8.40215 16 9.67392 16 11Z" fill="#00B4C5"/>
<path fill-rule="evenodd" clip-rule="evenodd" d="M2 11C2.00016 9.56238 2.3447 8.14571 3.00479 6.86859C3.66489 5.59146 4.62132 4.49105 5.79402 3.65947C6.96672 2.82788 8.32158 2.28933 9.74516 2.08889C11.1687 1.88844 12.6196 2.03194 13.9764 2.50738C15.3331 2.98281 16.5562 3.77634 17.5433 4.82154C18.5304 5.86673 19.2527 7.13318 19.6498 8.51487C20.0469 9.89656 20.1073 11.3533 19.8258 12.7631C19.5443 14.1729 18.9292 15.4947 18.032 16.618L21.707 20.293C21.8892 20.4816 21.99 20.7342 21.9877 20.9964C21.9854 21.2586 21.8802 21.5094 21.6948 21.6948C21.5094 21.8802 21.2586 21.9854 20.9964 21.9877C20.7342 21.99 20.4816 21.8892 20.293 21.707L16.618 18.032C15.2939 19.09 13.6979 19.7526 12.0138 19.9435C10.3297 20.1344 8.62586 19.8459 7.0985 19.1112C5.57113 18.3764 4.28228 17.2253 3.38029 15.7904C2.47831 14.3554 1.99985 12.6949 2 11ZM11 4C10.0807 4 9.17049 4.18106 8.32122 4.53285C7.47194 4.88463 6.70026 5.40025 6.05025 6.05026C5.40024 6.70027 4.88463 7.47194 4.53284 8.32122C4.18106 9.1705 4 10.0808 4 11C4 11.9193 4.18106 12.8295 4.53284 13.6788C4.88463 14.5281 5.40024 15.2997 6.05025 15.9498C6.70026 16.5998 7.47194 17.1154 8.32122 17.4672C9.17049 17.8189 10.0807 18 11 18C12.8565 18 14.637 17.2625 15.9497 15.9498C17.2625 14.637 18 12.8565 18 11C18 9.14349 17.2625 7.36301 15.9497 6.05026C14.637 4.7375 12.8565 4 11 4Z" fill="#00B4C5"/>
</svg>
