<svg width="47" height="51" viewBox="0 0 47 51" fill="none" xmlns="http://www.w3.org/2000/svg">
<path d="M44.6667 27.6677C44.6667 39.3344 35.3333 45.1677 24.24 48.5511C23.6591 48.7233 23.0281 48.7151 22.4533 48.5277C11.3333 45.1677 2 39.3344 2 27.6677V11.3344C2 10.7155 2.28095 10.1221 2.78105 9.68447C3.28115 9.24688 3.95942 9.00105 4.66667 9.00105C10 9.00105 16.6667 6.20105 21.3067 2.65438C21.8716 2.23205 22.5903 2 23.3333 2C24.0764 2 24.7951 2.23205 25.36 2.65438C30.0267 6.22438 36.6667 9.00105 42 9.00105C42.7072 9.00105 43.3855 9.24688 43.8856 9.68447C44.3857 10.1221 44.6667 10.7155 44.6667 11.3344V27.6677Z" stroke="#008695" stroke-width="4" stroke-linecap="round" stroke-linejoin="round"/>
</svg>
