<svg width="58" height="46" viewBox="0 0 58 46" fill="none" xmlns="http://www.w3.org/2000/svg">
<path d="M39.3333 44V39.3333C39.3333 36.858 38.2095 34.484 36.2091 32.7337C34.2087 30.9833 31.4956 30 28.6667 30H12.6667C9.83769 30 7.12458 30.9833 5.12419 32.7337C3.12381 34.484 2 36.858 2 39.3333V44M39.3333 2.29865C41.6207 2.81751 43.6464 3.98626 45.0925 5.62146C46.5386 7.25665 47.3232 9.26572 47.3232 11.3333C47.3232 13.4009 46.5386 15.41 45.0925 17.0452C43.6464 18.6804 41.6207 19.8491 39.3333 20.368M55.3333 44V39.3333C55.3316 37.2654 54.545 35.2565 53.097 33.6221C51.649 31.9877 49.6217 30.8203 47.3333 30.3033M31.3333 11.3333C31.3333 16.488 26.5577 20.6667 20.6667 20.6667C14.7756 20.6667 10 16.488 10 11.3333C10 6.17868 14.7756 2 20.6667 2C26.5577 2 31.3333 6.17868 31.3333 11.3333Z" stroke="#008695" stroke-width="4" stroke-linecap="round" stroke-linejoin="round"/>
</svg>
