<svg width="36" height="51" viewBox="0 0 36 51" fill="none" xmlns="http://www.w3.org/2000/svg">
<path d="M27.272 27.41L31.312 47.304C31.3572 47.5383 31.3197 47.7791 31.2043 47.9941C31.089 48.2092 30.9013 48.3883 30.6665 48.5076C30.4316 48.6268 30.1608 48.6804 29.8901 48.6614C29.6195 48.6423 29.362 48.5513 29.152 48.4007L19.6053 42.131C19.1445 41.8298 18.5846 41.667 18.0093 41.667C17.434 41.667 16.8742 41.8298 16.4133 42.131L6.85065 48.3984C6.64084 48.5487 6.38362 48.6395 6.11331 48.6586C5.843 48.6778 5.57245 48.6243 5.33776 48.5054C5.10306 48.3865 4.91539 48.2078 4.79977 47.9931C4.68415 47.7785 4.64609 47.5381 4.69065 47.304L8.72799 27.41M34 16C34 23.732 26.8366 30 18 30C9.16344 30 2 23.732 2 16C2 8.26801 9.16344 2 18 2C26.8366 2 34 8.26801 34 16Z" stroke="#008695" stroke-width="4" stroke-linecap="round" stroke-linejoin="round"/>
</svg>
