<svg width="19" height="19" viewBox="0 0 19 19" fill="none" xmlns="http://www.w3.org/2000/svg">
<path d="M15.7855 1.62064V4.95397M17.4517 3.2873H14.1184M2.45192 13.2873V14.954M3.28502 14.1206H1.61835M7.40001 12.0373C7.32561 11.7489 7.17529 11.4857 6.96469 11.2751C6.75409 11.0645 6.4909 10.9142 6.20251 10.8398L1.09001 9.52148C1.00278 9.49673 0.926013 9.44419 0.871349 9.37185C0.816685 9.29952 0.787109 9.21132 0.787109 9.12065C0.787109 9.02998 0.816685 8.94178 0.871349 8.86944C0.926013 8.79711 1.00278 8.74457 1.09001 8.71982L6.20251 7.40065C6.4908 7.32632 6.75391 7.17613 6.96451 6.96568C7.1751 6.75524 7.32548 6.49222 7.40001 6.20398L8.71834 1.09148C8.74285 1.00392 8.79533 0.926768 8.86777 0.871812C8.94022 0.816857 9.02866 0.787109 9.11959 0.787109C9.21052 0.787109 9.29896 0.816857 9.3714 0.871812C9.44385 0.926768 9.49633 1.00392 9.52084 1.09148L10.8383 6.20398C10.9127 6.49238 11.0631 6.75556 11.2737 6.96616C11.4843 7.17677 11.7474 7.32709 12.0358 7.40148L17.1483 8.71898C17.2363 8.74323 17.3138 8.79566 17.369 8.86821C17.4243 8.94077 17.4542 9.02945 17.4542 9.12065C17.4542 9.21185 17.4243 9.30053 17.369 9.37309C17.3138 9.44564 17.2363 9.49807 17.1483 9.52232L12.0358 10.8398C11.7474 10.9142 11.4843 11.0645 11.2737 11.2751C11.0631 11.4857 10.9127 11.7489 10.8383 12.0373L9.52001 17.1498C9.4955 17.2374 9.44302 17.3145 9.37057 17.3695C9.29812 17.4244 9.20969 17.4542 9.11876 17.4542C9.02782 17.4542 8.93939 17.4244 8.86694 17.3695C8.79449 17.3145 8.74201 17.2374 8.71751 17.1498L7.40001 12.0373Z" stroke="white" stroke-width="1.57331" stroke-linecap="round" stroke-linejoin="round"/>
</svg>
