<svg width="24" height="18" viewBox="0 0 24 18" fill="none" xmlns="http://www.w3.org/2000/svg">
<path d="M1.60745 13.7853C0.870435 10.3072 0.870435 6.71321 1.60745 3.2351C1.70429 2.88189 1.89139 2.55996 2.15037 2.30099C2.40934 2.04202 2.73126 1.85491 3.08447 1.75807C8.74301 0.820644 14.5172 0.820644 20.1758 1.75807C20.529 1.85491 20.8509 2.04202 21.1099 2.30099C21.3689 2.55996 21.556 2.88189 21.6528 3.2351C22.3898 6.71321 22.3898 10.3072 21.6528 13.7853C21.556 14.1385 21.3689 14.4604 21.1099 14.7194C20.8509 14.9784 20.529 15.1655 20.1758 15.2623C14.5173 16.1999 8.743 16.1999 3.08447 15.2623C2.73126 15.1655 2.40934 14.9784 2.15037 14.7194C1.89139 14.4604 1.70429 14.1385 1.60745 13.7853Z" stroke="#B1B5B9" stroke-width="2.11004" stroke-linecap="round" stroke-linejoin="round"/>
<path d="M9.52013 11.6753L14.7952 8.51019L9.52013 5.34514V11.6753Z" stroke="#B1B5B9" stroke-width="2.11004" stroke-linecap="round" stroke-linejoin="round"/>
</svg>
